<?xml version="1.0" encoding="utf-8"?>
<!-- Generator: Adobe Illustrator 15.0.2, SVG Export Plug-In . SVG Version: 6.00 Build 0)  -->
<!DOCTYPE svg PUBLIC "-//W3C//DTD SVG 1.1//EN" "http://www.w3.org/Graphics/SVG/1.1/DTD/svg11.dtd">
<svg version="1.1" xmlns="http://www.w3.org/2000/svg" xmlns:xlink="http://www.w3.org/1999/xlink" x="0px" y="0px" width="36px"
	 height="36px" viewBox="0 0 36 36" enable-background="new 0 0 36 36" xml:space="preserve">
<g id="Layer_1">
</g>
<g id="Layer_2">
	<polygon points="24,23 23,23 23,17 18,17 17,17 17,11 17,10 18,10 23,10 23,4 24,4 26,4 26,0 0,0 0,26 11,26 11,36.017 14.853,26 
		26,26 26,23 	"/>
</g>
<g id="Layer_3">
	<polygon points="35,11 29,11 29,5 24,5 24,11 18,11 18,16 24,16 24,22 29,22 29,16 35,16 	"/>
</g>
<g id="Layer_4">
</g>
</svg>
