<svg class="camera" width="36px" height="36px" >
	<g transform="scale(0.7, 0.7)">
        <path d="M18.438,14.188c-3.481,0-6.312,2.832-6.312,6.312c0,3.48,2.832,6.312,6.312,6.312c3.48,0,6.312-2.832,6.312-6.312
            C24.75,17.019,21.918,14.188,18.438,14.188z"/>
        <path d="M27.682,11l-5.068-5H14l-5.311,5H0v19h36V11H27.682z M18.438,28.812c-4.583,0-8.312-3.729-8.312-8.312 c0-4.583,3.729-8.312,8.312-8.312c4.584,0,8.312,3.729,8.312,8.312C26.75,25.084,23.021,28.812,18.438,28.812z"/>
    </g>
</svg>
