<?xml version="1.0" encoding="utf-8"?>
<!-- Generator: Adobe Illustrator 15.0.2, SVG Export Plug-In . SVG Version: 6.00 Build 0)  -->
<!DOCTYPE svg PUBLIC "-//W3C//DTD SVG 1.1//EN" "http://www.w3.org/Graphics/SVG/1.1/DTD/svg11.dtd">
<svg version="1.1" id="Layer_2" xmlns="http://www.w3.org/2000/svg" xmlns:xlink="http://www.w3.org/1999/xlink" x="0px" y="0px"
	 width="36px" height="36px" viewBox="0 0 36 36" enable-background="new 0 0 36 36" xml:space="preserve">
<g>
	<path d="M18.438,14.188c-3.481,0-6.312,2.832-6.312,6.312c0,3.48,2.832,6.312,6.312,6.312c3.48,0,6.312-2.832,6.312-6.312
		C24.75,17.019,21.918,14.188,18.438,14.188z"/>
	<path d="M27.682,11l-5.068-5H14l-5.311,5H0v19h36V11H27.682z M18.438,28.812c-4.583,0-8.312-3.729-8.312-8.312
		c0-4.583,3.729-8.312,8.312-8.312c4.584,0,8.312,3.729,8.312,8.312C26.75,25.084,23.021,28.812,18.438,28.812z"/>
</g>
</svg>
