<?xml version="1.0" encoding="utf-8"?>
<!-- Generator: Adobe Illustrator 15.0.2, SVG Export Plug-In . SVG Version: 6.00 Build 0)  -->
<!DOCTYPE svg PUBLIC "-//W3C//DTD SVG 1.1//EN" "http://www.w3.org/Graphics/SVG/1.1/DTD/svg11.dtd">
<svg version="1.1" xmlns="http://www.w3.org/2000/svg" xmlns:xlink="http://www.w3.org/1999/xlink" x="0px" y="0px" width="36px"
	 height="36px" viewBox="0 0 36 36" enable-background="new 0 0 36 36" xml:space="preserve">
<g id="Layer_2">
	<path d="M13.125,6.625c0-2.485,1.952-4.5,4.438-4.5S22,4.14,22,6.625v12c0,2.485-1.952,4.5-4.438,4.5s-4.469-2.015-4.469-4.5
		L13.125,6.625z"/>
</g>
<g id="Layer_3">
	<path d="M23,13v5.625c0,3.032-2.439,5.5-5.438,5.5c-3.016,0-5.469-2.468-5.469-5.5L12.108,13h-1l-0.015,5.625
		c0,3.584,2.902,6.5,6.469,6.5c3.55,0,6.438-2.916,6.438-6.5V13H23z"/>
	<rect x="17" y="25" width="1" height="7"/>
	<rect x="12" y="31" width="11" height="1"/>
</g>
<g id="Layer_4">
</g>
</svg>
