<svg class="microphone" width="36px" height="36px" viewBox="0 0 36 36" >
	<g transform="scale(0.7, 0.7)">
        <path d="M13.125,6.625c0-2.485,1.952-4.5,4.438-4.5S22,4.14,22,6.625v12c0,2.485-1.952,4.5-4.438,4.5s-4.469-2.015-4.469-4.5
            L13.125,6.625z"/>
        <path d="M23,13v5.625c0,3.032-2.439,5.5-5.438,5.5c-3.016,0-5.469-2.468-5.469-5.5L12.108,13h-1l-0.015,5.625
            c0,3.584,2.902,6.5,6.469,6.5c3.55,0,6.438-2.916,6.438-6.5V13H23z"/>
        <rect x="17" y="25" width="1" height="7"/>
        <rect x="12" y="31" width="11" height="1"/>
	</g>
</svg>
