<svg class="speaker">
<g>
    <path fill-rule="evenodd" clip-rule="evenodd" d="M18.565,3.609c0.263-0.05,1.062-0.015,1.339,0.447 c0.293,0.486,0.149,2.392,0.149,3.275c0,6.82,0,13.432,0,20.542c0,1.354-0.037,2.319-0.968,2.457 c-1.037,0.152-2.073-1.175-2.605-1.638c-1.893-1.645-3.687-3.224-5.656-4.912c-0.42-0.359-0.88-0.817-1.191-0.894 c-0.974-0.238-2.697,0-4.317,0c-1.253,0-3.249,0.324-3.945-0.372C0.916,22.059,1,20.868,1,19.91c0-0.986,0-1.886,0-2.978 c0-1.756-0.303-5.242,0.521-5.805c0.716-0.489,2.663-0.223,4.02-0.223c0.669,0,1.401,0,2.084,0c0.738,0,1.561,0.127,2.083,0 c0.369-0.09,0.814-0.632,1.117-0.893c2.189-1.893,4.292-3.633,6.475-5.508C17.674,4.182,17.953,3.729,18.565,3.609z"/> <path fill-rule="evenodd" clip-rule="evenodd" d="M29.432,3.759c1.355-0.411,2.181,1.389,2.828,2.456 c1.8,2.969,3.052,6.237,3.052,10.867c0,4.599-1.299,7.875-3.126,10.792c-0.635,1.015-1.742,3.319-3.126,2.085 c-1.09-0.972,0.298-2.21,1.042-3.424c1.538-2.511,2.737-5.405,2.754-9.527c0.018-4.72-1.575-8.08-3.573-10.792 c-0.225-0.307-0.679-0.83-0.669-1.34C28.628,4.047,29.072,3.867,29.432,3.759z"/> <path fill-rule="evenodd" clip-rule="evenodd" d="M26.38,6.959c1.518-0.29,2.697,2.757,3.2,4.02c0.652,1.632,1.181,3.835,1.191,5.88 c0.019,3.568-0.918,6.124-2.308,8.41c-0.47,0.773-0.964,1.749-1.712,1.786c-0.986,0.049-1.313-0.725-1.34-1.191 c-0.045-0.805,0.684-1.322,1.043-1.935c1.064-1.811,1.853-4.104,1.86-6.922c0.008-2.906-0.848-5.202-1.936-6.996 c-0.394-0.65-1.062-1.395-1.042-1.935C25.373,7.188,26.045,7.023,26.38,6.959z"/> <path fill-rule="evenodd" clip-rule="evenodd" d="M22.882,10.457c1.241-0.24,1.859,1.348,2.308,2.531 c0.818,2.164,1.013,5.262,0.148,7.74c-0.336,0.963-1.157,2.782-2.084,2.828c-0.577,0.028-1.275-0.466-1.34-1.116 c-0.068-0.701,0.575-1.35,0.894-2.084c0.49-1.136,0.751-2.609,0.595-4.392c-0.08-0.919-0.399-1.729-0.669-2.381 c-0.221-0.533-0.918-1.377-0.819-2.158C21.993,10.796,22.455,10.54,22.882,10.457z"/> </g>
</svg>
